<?xml version="1.0" encoding="UTF-8"?>
<svg width="512" height="512" version="1.0" viewBox="0 0 512 512" xmlns="http://www.w3.org/2000/svg" xmlns:cc="http://creativecommons.org/ns#" xmlns:dc="http://purl.org/dc/elements/1.1/" xmlns:rdf="http://www.w3.org/1999/02/22-rdf-syntax-ns#">
 <metadata>
  <rdf:RDF>
   <cc:Work rdf:about="">
    <dc:format>image/svg+xml</dc:format>
    <dc:type rdf:resource="http://purl.org/dc/dcmitype/StillImage"/>
    <dc:title/>
   </cc:Work>
  </rdf:RDF>
 </metadata>
 <rect x="6.0703" y="6.2616" width="500" height="500" rx="100" fill="#844fff"/>
 <g transform="matrix(.88431 0 0 .88431 65.722 25.721)" fill="#fff" fill-rule="evenodd">
  <path d="m227.7 482.1c-15.9-1.9-37.3-8.7-47-15.1-21.9-14.3-36.9-36.6-39.3-58.4-1.3-12.8 4.8-29.2 13.2-35.3 16.7-12.1 42.8-12.9 64.9-2.2 13.9 6.8 21.8 16.8 24.1 30.7 1.5 9.5 5.4 15.9 11.9 19.8 5.7 3.3 11.3 4.6 19.5 4.5 16.3-0.1 29.4-6.9 37.5-19.1 8-12.1 7-33-2.6-52.8-3.6-7.3-4.8-8.8-10.7-13.2-7.6-5.6-29.9-17.4-50.7-26.8-20-9.1-43.7-19.2-44.8-19.2s-4.9 3.3-17.8 15.4c-8.6 8.1-27.2 25.2-30.4 27.9-1.1 1-4.5 4.2-7.5 7-3.1 2.9-13.9 12.8-24 22.1-10.2 9.3-21.9 20.1-26.1 24-15.9 14.9-28.3 26.1-29.1 26.1-1.3 0-20.8-21.7-20.8-23 0-0.6 3.7-4.5 8.2-8.5s13.9-12.5 20.7-18.9c6.9-6.4 14.8-13.7 17.5-16.2 2.8-2.5 11.4-10.4 19.1-17.5s23.2-21.5 34.5-31.9c11.2-10.4 20.6-19.2 20.8-19.7 0.4-1.1-2.2-2.3-18.5-8.4-28.7-10.7-53.1-24.3-68.4-38-17.9-16-26.8-29.6-33.7-50.9-2.4-7.4-2.6-9.5-2.7-26 0-15.6 0.3-19.3 2.3-27 3.1-12.4 11.6-31.7 17.3-39 13.8-18 27.5-29.2 47.2-38.6 23.7-11.3 42.3-15.2 72.7-15.4 18.2 0 20.1 0.1 29.6 2.7 24.3 6.6 33.9 11.4 46.2 23.2 8.1 7.7 12.9 14.2 18.1 24.1 5.6 11 7.4 18.6 6.9 30.4-0.5 10.9-3 17.5-9.3 24.8-10 11.5-33.1 16.3-53.6 11.1-22.3-5.6-35.7-18-39-35.9-1.2-6.8-4.6-14.4-7.6-17.2-1.1-0.9-4.4-2.8-7.4-4.1-19.9-9-48.6 1.5-56.3 20.7-3.1 7.8-3.7 14.8-2.1 25.1 2.1 13.4 7.7 26.9 13.7 32.5 7.4 7.1 31 20 58.6 32.2 7.5 3.3 15 6.6 16.7 7.4 8.9 4.1 27.1 11.4 28.3 11.4 0.7 0.1 7.7-5.9 15.5-13.2s24.1-22.3 36.2-33.4 23.8-21.9 26.1-24c2.2-2.1 8.7-8.1 14.4-13.3 5.7-5.3 10.8-10 11.4-10.5 0.6-0.6 6.5-6 13-12 6.6-6.1 13.6-12.5 15.5-14.3 2-1.8 3.9-3.2 4.2-3.2 1-0.1 20.9 21.7 20.9 22.8 0 0.5-2.6 3.3-5.8 6.2s-9.1 8.5-13.3 12.4-9.8 9.1-12.5 11.6-11.2 10.3-18.9 17.4-17 15.6-20.6 19c-43.3 40-51.8 48-51.4 48.6 0.2 0.3 2.5 1.4 5.2 2.4 2.6 1 6.2 2.4 7.9 3.1 1.7 0.8 3.7 1.5 4.3 1.5s3 0.8 5.3 1.9c2.3 1 8.1 3.5 12.8 5.6 43.1 18.9 71.7 47.2 81.3 80.5 7.3 25.7 3 57.4-11.1 82.5-6.1 10.7-9 14.4-19.7 25.1-22.9 22.7-53.6 35.2-93.8 38.3-16.6 1.3-17.8 1.3-27 0.2"/>
  <path d="m60.7 335.4c-7.7-3.7-13.8-13.6-13.7-22.2 0-7.8 6.9-17.8 14.1-20.7 6-2.4 14-2.2 19.1 0.4 9.2 4.8 13.2 11.1 13.2 21.1 0 9.7-3.8 15.8-12.7 20.8-4.6 2.6-15.1 2.9-20 0.6"/>
  <path d="m344.2 246.1c-17.3-8.6-18.4-32-1.9-41.6 8.5-5 17.7-4.3 25.9 1.9 5.5 4.2 8 9.2 8.5 17.1 0.6 9.4-4.6 18.5-13 22.6-5 2.5-14.5 2.5-19.5 0"/>
 </g>
</svg>
